<svg width="58" height="18" viewBox="0 0 58 18" fill="none" xmlns="http://www.w3.org/2000/svg">
<path d="M0 0H24V6H0V0Z" fill="#FF8718"/>
<path d="M0 6H24V12H0V6Z" fill="#F5F8FB"/>
<path d="M0 12H24V18H0V12Z" fill="#2B9F5A"/>
<path d="M13.5 9C13.5 9.82843 12.8284 10.5 12 10.5C11.1716 10.5 10.5 9.82843 10.5 9C10.5 8.17157 11.1716 7.5 12 7.5C12.8284 7.5 13.5 8.17157 13.5 9Z" fill="#F5F8FB"/>
<path fill-rule="evenodd" clip-rule="evenodd" d="M12 8.25C11.5858 8.25 11.25 8.58579 11.25 9C11.25 9.41421 11.5858 9.75 12 9.75C12.4142 9.75 12.75 9.41421 12.75 9C12.75 8.58579 12.4142 8.25 12 8.25ZM9.75 9C9.75 7.75736 10.7574 6.75 12 6.75C13.2426 6.75 14.25 7.75736 14.25 9C14.25 10.2426 13.2426 11.25 12 11.25C10.7574 11.25 9.75 10.2426 9.75 9Z" fill="#41479B"/>
<path d="M56.81 8.61035L54.9083 10.512C54.6838 10.7366 54.3163 10.7366 54.0917 10.512L52.19 8.61035" stroke="black" stroke-miterlimit="10" stroke-linecap="round" stroke-linejoin="round"/>
<path d="M28.902 4.805H29.991V13H28.902V4.805ZM31.8024 4.805H32.7154L37.4124 11.427L37.0164 11.471V4.805H38.1054V13H37.1924L32.5174 6.334L32.8914 6.29V13H31.8024V4.805ZM39.9127 4.805H42.8167C43.3521 4.805 43.8251 4.90767 44.2357 5.113C44.6537 5.31833 44.9764 5.61533 45.2037 6.004C45.4384 6.38533 45.5557 6.83267 45.5557 7.346C45.5557 7.918 45.4091 8.40567 45.1157 8.809C44.8297 9.21233 44.4337 9.50567 43.9277 9.689L45.8307 13H44.5767L42.5637 9.447L43.2897 9.865H41.0017V13H39.9127V4.805ZM42.8497 8.875C43.1724 8.875 43.4547 8.81267 43.6967 8.688C43.9387 8.56333 44.1257 8.38367 44.2577 8.149C44.3971 7.91433 44.4667 7.643 44.4667 7.335C44.4667 7.027 44.3971 6.75567 44.2577 6.521C44.1257 6.28633 43.9387 6.10667 43.6967 5.982C43.4547 5.85733 43.1724 5.795 42.8497 5.795H41.0017V8.875H42.8497Z" fill="black"/>
</svg>
