<svg width="13" height="12" viewBox="0 0 13 12" fill="none" xmlns="http://www.w3.org/2000/svg">
<path fill-rule="evenodd" clip-rule="evenodd" d="M11.2293 4.49682H8.5456C8.61596 3.61543 8.61596 2.72984 8.5456 1.84845C8.46127 1.23044 8.18604 0.653701 7.75789 0.197887C7.60952 0.0993059 7.43092 0.0559414 7.25353 0.0753163C7.07615 0.0946913 6.91133 0.175624 6.78803 0.30388C6.78803 0.30388 6.82263 1.73347 6.82263 2.06033C6.64198 2.6517 6.3111 3.18686 5.86189 3.61407C5.66428 3.79515 4.36201 4.30307 4.07242 4.49682V10.6762L9.61836 10.6672C10.6483 10.6672 10.9689 9.43132 10.305 9.31633L10.3532 9.17508C11.0135 9.10446 11.5489 8.0098 10.7467 7.77983L10.7949 7.64764C11.4215 7.57702 12.0234 6.5087 11.1892 6.24432L11.2366 6.11213C12.0717 5.97089 12.4086 4.64625 11.5389 4.64625L11.2293 4.49682ZM0.494446 5.37958H3.17815V11.5591H0.494446V5.37958Z" fill="#4B4F56"/>
</svg>
